# xmcd CD database file
#
# Track frame offsets:
#	150
#	13692
#	23847
#	36427
#	51462
#	63582
#	74322
#	97960
#	109950
#	124637
#	132777
#	145905
#	164792
#
# Disc length: 2360 seconds
#
# Revision: 0
# Processed by: cddbd v1.4PL0 Copyright (c) Steve Scherf et al.
# Submitted via: CDex 1.40Release
#
DISCID=c009360d
DTITLE=Red Rivers and The Rocketones - 1/4 mile down
DYEAR=1998
DGENRE=Country
TTITLE0=Heart of the Honky Tonk
TTITLE1=Juke Jump Saturday Night
TTITLE2=You're On My Mind
TTITLE3=In Too Deep
TTITLE4=Drop Girl
TTITLE5=Sugar Talk
TTITLE6=Angel of Fortune
TTITLE7=Cadillac baby
TTITLE8=When The Blues Begin
TTITLE9=Quarter Mile Down
TTITLE10=The Hustle Is On
TTITLE11=Turning off a Memory
TTITLE12=Rockin' My Blues
EXTD=YEAR: 1998 ID3G: 2
EXTT0=
EXTT1=
EXTT2=
EXTT3=
EXTT4=
EXTT5=
EXTT6=
EXTT7=
EXTT8=
EXTT9=
EXTT10=
EXTT11=
EXTT12=
PLAYORDER=
